<svg id="LINE" enable-background="new 0 0 36 36" height="512" viewBox="0 0 36 36" width="512" xmlns="http://www.w3.org/2000/svg"><path d="m8.114 5.564c-1.805 6.677-6.504 10.327-7.374 13.545s-.847 10.475 13.955 14.477 19.432-4.501 20.388-8.041c4.481-16.572-23.772-31.807-26.969-19.981z" fill="#efefef"/><g fill="#a4afc1"><path d="m7.772 8.449h2v1h-2z" transform="matrix(.707 -.707 .707 .707 -3.759 8.824)"/><path d="m3.706 12.515h2v1h-2z" transform="matrix(.707 -.707 .707 .707 -7.824 7.14)"/><path d="m4.206 7.773h1v2h-1z" transform="matrix(.707 -.707 .707 .707 -4.825 5.897)"/><path d="m31.65 31.75c-.827 0-1.5-.673-1.5-1.5s.673-1.5 1.5-1.5 1.5.673 1.5 1.5-.672 1.5-1.5 1.5zm0-2c-.276 0-.5.225-.5.5s.224.5.5.5.5-.225.5-.5-.224-.5-.5-.5z"/></g><path d="m15 18 6.5-6.5z" fill="#2fdf84"/><path d="m24.25 11.25h-2.5v-2.5l2-2v2.5h2.5z" fill="#2fdf84"/><path d="m20.75 23.75 1.75 1.5 3.25-3.5z" fill="#2fdf84"/><path d="m15.25 9.75c-.044 0-.087.006-.13.007-.044-.001-.086-.007-.13-.007-4.552 0-8.25 3.698-8.25 8.25s3.698 8.25 8.25 8.25h.019l.111-.172.111.172h.019c4.552 0 8.25-3.698 8.25-8.25s-3.698-8.25-8.25-8.25z" fill="#f3f3f1"/><path d="m8.739 18c0-4.258 3.236-7.768 7.38-8.203-.286-.03-.576-.047-.87-.047-.044 0-.087.006-.13.007-.044-.001-.086-.007-.13-.007-4.552 0-8.25 3.698-8.25 8.25s3.698 8.25 8.25 8.25h.019l.111-.172.111.172h.019c.294 0 .584-.017.87-.047-4.143-.435-7.38-3.945-7.38-8.203z" fill="#d5dbe1"/><circle cx="23.5" cy="23.5" fill="#2fdf84" r="5.75"/><path d="m19.75 23.5c0-2.834 2.052-5.183 4.75-5.657-.325-.057-.658-.093-1-.093-3.176 0-5.75 2.574-5.75 5.75s2.574 5.75 5.75 5.75c.342 0 .675-.035 1-.093-2.698-.474-4.75-2.823-4.75-5.657z" fill="#00b871"/><path d="m15.008 27c-4.981 0-9.019-4.037-9.019-9s4.038-9 9-9c2.404 0 4.664.937 6.363 2.637.77.77 1.393 1.673 1.852 2.686l-1.366.619c-.384-.848-.904-1.603-1.546-2.244-1.417-1.417-3.3-2.197-5.303-2.197-4.136 0-7.5 3.364-7.5 7.5s3.364 7.5 7.5 7.5z"/><path d="m14.457 23.467c-2.835-.268-4.973-2.618-4.973-5.468 0-3.032 2.467-5.499 5.499-5.499 1.462 0 2.844.569 3.89 1.604.344.345.641.737.886 1.171l-1.307.738c-.178-.316-.393-.601-.638-.846-.759-.751-1.766-1.167-2.831-1.167-2.205 0-3.999 1.794-3.999 3.999 0 2.071 1.553 3.779 3.613 3.974z"/><path d="m13.654 14h9.192v1.5h-9.192z" transform="matrix(.707 -.707 .707 .707 -5.085 17.225)"/><path d="m24.25 12h-2.5c-.414 0-.75-.336-.75-.75v-2.5c0-.199.079-.39.22-.53l2-2c.215-.215.538-.278.817-.163.28.116.463.39.463.693v1.75h1.75c.303 0 .577.183.693.463s.052.603-.163.817l-2 2c-.14.141-.331.22-.53.22zm-1.75-1.5h1.439l.5-.5h-.689c-.414 0-.75-.336-.75-.75v-.689l-.5.5z"/><path d="m23.5 30c-3.584 0-6.5-2.916-6.5-6.5s2.916-6.5 6.5-6.5c1.573 0 3.091.569 4.275 1.604l-.986 1.129c-.911-.795-2.079-1.233-3.289-1.233-2.757 0-5 2.243-5 5s2.243 5 5 5 5-2.243 5-5c0-.76-.166-1.489-.494-2.169l1.352-.65c.426.883.642 1.833.642 2.819 0 3.584-2.916 6.5-6.5 6.5z"/><path d="m22.5 26c-.173 0-.347-.06-.488-.181l-1.75-1.5.977-1.139 1.203 1.031 2.759-2.973 1.1 1.021-3.25 3.5c-.149.16-.35.241-.551.241z"/></svg>