<svg id="LINE" enable-background="new 0 0 36 36" height="512" viewBox="0 0 36 36" width="512" xmlns="http://www.w3.org/2000/svg"><path d="m8.377 31.833c6.917 0 11.667 3.583 15 3.583s10.333-1.916 10.333-17.249-9.417-17.584-13.083-17.584c-17.167 0-24.5 31.25-12.25 31.25z" fill="#efefef"/><g fill="#a4afc1"><path d="m16.273 3.19h2v1h-2z" transform="matrix(.707 -.707 .707 .707 2.45 13.294)"/><path d="m12.207 7.255h2v1h-2z" transform="matrix(.707 -.707 .707 .707 -1.615 11.61)"/><path d="m12.707 2.513h1v2h-1z" transform="matrix(.707 -.707 .707 .707 1.384 10.368)"/><path d="m3.29 19.173c-.827 0-1.5-.673-1.5-1.5s.673-1.5 1.5-1.5 1.5.673 1.5 1.5-.673 1.5-1.5 1.5zm0-2c-.276 0-.5.225-.5.5s.224.5.5.5.5-.225.5-.5-.224-.5-.5-.5z"/></g><circle cx="23" cy="23" fill="#2fdf84" r="1.25"/><path d="m19.75 29.25v-.5c0-1.105.895-2 2-2h2.5c1.105 0 2 .895 2 2v.5z" fill="#f3f3f1"/><circle cx="11.5" cy="20.5" fill="#2fdf84" r="2.25"/><path d="m6.75 29.25v-1.5c0-1.105.895-2 2-2h5.5c1.105 0 2 .895 2 2v1.5z" fill="#2fdf84"/><path d="m16.75 6.75h12.5v8.5h-12.5l3.25-4.25z" fill="#2fdf84"/><path d="m10.75 25.75h-2c-1.105 0-2 .895-2 2v1.5h2v-1.5c0-1.105.895-2 2-2z" fill="#00b871"/><path d="m11.25 20.5c0-.882.512-1.637 1.25-2.006-.302-.151-.639-.244-1-.244-1.243 0-2.25 1.007-2.25 2.25s1.007 2.25 2.25 2.25c.361 0 .698-.093 1-.244-.738-.369-1.25-1.125-1.25-2.006z" fill="#00b871"/><path d="m23.75 26.75h-2c-1.105 0-2 .895-2 2v.5h2v-.5c0-1.105.895-2 2-2z" fill="#d5dbe1"/><path d="m18.75 6.75h-2l3.25 4.25-3.25 4.25h2l3.25-4.25z" fill="#00b871"/><circle cx="23" cy="23" fill="#f3f3f1" r="1.25"/><path d="m23 25c-1.103 0-2-.897-2-2s.897-2 2-2 2 .897 2 2-.897 2-2 2zm0-2.5c-.276 0-.5.225-.5.5s.224.5.5.5.5-.225.5-.5-.224-.5-.5-.5z"/><path d="m27 29.25h-1.5v-.5c0-.689-.561-1.25-1.25-1.25h-2.5c-.689 0-1.25.561-1.25 1.25v.5h-1.5v-.5c0-1.517 1.233-2.75 2.75-2.75h2.5c1.517 0 2.75 1.233 2.75 2.75z"/><path d="m11.5 23.5c-1.654 0-3-1.346-3-3s1.346-3 3-3 3 1.346 3 3-1.346 3-3 3zm0-4.5c-.827 0-1.5.673-1.5 1.5s.673 1.5 1.5 1.5 1.5-.673 1.5-1.5-.673-1.5-1.5-1.5z"/><path d="m17 29.25h-1.5v-1.5c0-.689-.561-1.25-1.25-1.25h-5.5c-.689 0-1.25.561-1.25 1.25v1.5h-1.5v-1.5c0-1.517 1.233-2.75 2.75-2.75h5.5c1.517 0 2.75 1.233 2.75 2.75z"/><path d="m28.5 6.75h1.5v22.5h-1.5z"/><path d="m29.25 16h-12.5c-.285 0-.546-.162-.672-.418s-.097-.561.077-.788l2.901-3.794-2.901-3.794c-.173-.228-.203-.532-.077-.788s.387-.418.672-.418h7.129v1.5h-5.612l2.328 3.044c.206.27.206.643 0 .912l-2.327 3.044h10.232v-7h-2.304v-1.5h3.054c.414 0 .75.336.75.75v8.5c0 .414-.336.75-.75.75z"/></svg>