<svg id="LINE" enable-background="new 0 0 36 36" height="512" viewBox="0 0 36 36" width="512" xmlns="http://www.w3.org/2000/svg"><path d="m27.417 3.914c-6.915.129-11.732-3.365-15.064-3.302s-10.296 2.109-10.009 17.44 9.744 17.404 13.41 17.336c17.163-.321 23.911-31.703 11.663-31.474z" fill="#efefef"/><g fill="#a4afc1"><path d="m8.717 11.308h2v1h-2z" transform="matrix(.707 -.707 .707 .707 -5.503 10.33)"/><path d="m4.651 15.373h2v1h-2z" transform="matrix(.707 -.707 .707 .707 -9.569 8.645)"/><path d="m5.151 10.631h1v2h-1z" transform="matrix(.707 -.707 .707 .707 -6.569 7.403)"/><path d="m25.35 32.455c-.827 0-1.5-.673-1.5-1.5s.673-1.5 1.5-1.5 1.5.673 1.5 1.5-.673 1.5-1.5 1.5zm0-2c-.276 0-.5.225-.5.5s.224.5.5.5.5-.225.5-.5-.225-.5-.5-.5z"/></g><circle cx="26" cy="16" fill="#f3f3f1" r="1.25"/><circle cx="10" cy="16" fill="#f3f3f1" r="1.25"/><circle cx="18" cy="15.5" fill="#2fdf84" r="2.25"/><path d="m13.25 24.25v-1.5c0-1.105.895-2 2-2h5.5c1.105 0 2 .895 2 2v1.5z" fill="#2fdf84"/><path d="m17.25 20.75h-2c-1.105 0-2 .895-2 2v1.5h2v-1.5c0-1.105.895-2 2-2z" fill="#00b871"/><path d="m17.75 15.5c0-.882.512-1.637 1.25-2.006-.302-.151-.639-.244-1-.244-1.243 0-2.25 1.007-2.25 2.25s1.007 2.25 2.25 2.25c.361 0 .698-.093 1-.244-.738-.369-1.25-1.125-1.25-2.006z" fill="#00b871"/><path d="m26 18c-1.103 0-2-.897-2-2s.897-2 2-2 2 .897 2 2-.897 2-2 2zm0-2.5c-.276 0-.5.225-.5.5s.224.5.5.5.5-.225.5-.5-.224-.5-.5-.5z"/><path d="m30 22.25h-1.5v-.5c0-.689-.561-1.25-1.25-1.25h-2.5v-1.5h2.5c1.517 0 2.75 1.233 2.75 2.75z"/><path d="m10 18c-1.103 0-2-.897-2-2s.897-2 2-2 2 .897 2 2-.897 2-2 2zm0-2.5c-.276 0-.5.225-.5.5s.224.5.5.5.5-.225.5-.5-.224-.5-.5-.5z"/><path d="m7.5 22.25h-1.5v-.5c0-1.517 1.233-2.75 2.75-2.75h2.5v1.5h-2.5c-.689 0-1.25.561-1.25 1.25z"/><path d="m18 18.5c-1.654 0-3-1.346-3-3s1.346-3 3-3 3 1.346 3 3-1.346 3-3 3zm0-4.5c-.827 0-1.5.673-1.5 1.5s.673 1.5 1.5 1.5 1.5-.673 1.5-1.5-.673-1.5-1.5-1.5z"/><path d="m23.5 24.25h-1.5v-1.5c0-.689-.561-1.25-1.25-1.25h-5.5c-.689 0-1.25.561-1.25 1.25v1.5h-1.5v-1.5c0-1.517 1.233-2.75 2.75-2.75h5.5c1.517 0 2.75 1.233 2.75 2.75z"/></svg>