<?xml version="1.0"?>
<svg xmlns="http://www.w3.org/2000/svg" xmlns:xlink="http://www.w3.org/1999/xlink" xmlns:svgjs="http://svgjs.com/svgjs" version="1.1" width="512" height="512" x="0" y="0" viewBox="0 0 512 512" style="enable-background:new 0 0 512 512" xml:space="preserve" class=""><g><g xmlns="http://www.w3.org/2000/svg"><g><g><path d="m331.908 189.345-56.757 89.891 87.223 162.009h128.581z" fill="#6fe9cd" data-original="#b2f0fb" style="" class=""/></g></g><g><path d="m502 431.245h-133.653l-159.556-296.362h57.4c3.411 0 6.587-1.739 8.425-4.613s2.084-6.487.652-9.583l-10.571-22.867 10.571-22.868c1.432-3.096 1.185-6.709-.652-9.583-1.838-2.874-5.014-4.613-8.425-4.613h-69.615c-5.523 0-10 4.477-10 10l.133 60.261-161.637 300.228h-15.072c-5.523 0-10 4.477-10 10s4.477 10 10 10h492c5.522 0 10-4.477 10-10s-4.478-10-10-10zm-305.291-276.612 48.202 89.532-1.977 5.422c-1.813 4.97-6.01 8.463-11.227 9.342-5.218.88-10.327-1.044-13.669-5.146l-20.395-25.031c-1.774-2.178-4.383-3.509-7.188-3.667-2.805-.159-5.547.87-7.556 2.834l-14.756 14.428c-2.941 2.876-6.828 4.335-10.93 4.117-3.076-.165-5.926-1.256-8.261-3.127zm53.843-73.878-5.948 12.868c-1.23 2.662-1.23 5.73 0 8.392l5.948 12.867h-43.842v-29.318c0-.555-.046-1.099-.133-1.629v-3.18zm-202.765 350.49 91.63-170.194c4.974 3.173 10.735 5.063 16.724 5.385 9.617.518 19.095-3.05 25.986-9.788l6.928-6.775 13.48 16.544c6.677 8.194 16.32 12.732 26.591 12.732 1.951 0 3.927-.164 5.907-.498 8.78-1.48 16.344-6.073 21.544-12.821l89.057 165.416h-297.847z" fill="#12125a" data-original="#020288" style="" class=""/></g></g></g></svg>
