<svg id="LINE" enable-background="new 0 0 36 36" height="512" viewBox="0 0 36 36" width="512" xmlns="http://www.w3.org/2000/svg"><path d="m4.167 27.623c0-6.917-3.583-11.667-3.583-15s1.916-10.333 17.249-10.333 17.583 9.417 17.583 13.083c.001 17.167-31.249 24.5-31.249 12.25z" fill="#efefef"/><g fill="#a4afc1"><path d="m6.543 4.306h2v1h-2z" transform="matrix(.707 -.707 .707 .707 -1.189 6.741)"/><path d="m2.477 8.371h2v1h-2z" transform="matrix(.707 -.707 .707 .707 -5.254 5.057)"/><path d="m2.977 3.629h1v2h-1z" transform="matrix(.707 -.707 .707 .707 -2.255 3.816)"/><path d="m32.996 24.476c-.827 0-1.5-.673-1.5-1.5s.673-1.5 1.5-1.5 1.5.673 1.5 1.5-.673 1.5-1.5 1.5zm0-2c-.275 0-.5.225-.5.5s.225.5.5.5.5-.225.5-.5-.225-.5-.5-.5z"/></g><path d="m19.75 13.25h5.894c.395 0 .781.117 1.109.336l2.496 1.664v-7.5c0-.552-.448-1-1-1h-8.5c-.552 0-1 .448-1 1v4.5c.001.552.449 1 1.001 1z" fill="#f3f3f1"/><circle cx="11.5" cy="21" fill="#f3f3f1" r="2.25"/><path d="m6.75 29.25v-1.5c0-1.105.895-2 2-2h5.5c1.105 0 2 .895 2 2v1.5z" fill="#2fdf84"/><circle cx="24.5" cy="21" fill="#f3f3f1" r="2.25"/><path d="m19.75 29.25v-1.5c0-1.105.895-2 2-2h5.5c1.105 0 2 .895 2 2v1.5z" fill="#2fdf84"/><path d="m18.25 15.25h-7.894c-.395 0-.781.117-1.109.336l-2.497 1.664v-7.5c0-.552.448-1 1-1h10.5c.552 0 1 .448 1 1v4.5c0 .552-.448 1-1 1z" fill="#2fdf84"/><path d="m8.75 9.75c0-.552.448-1 1-1h-2c-.552 0-1 .448-1 1v7.5l2-1.333z" fill="#00b871"/><path d="m20.75 12.25v-4.5c0-.552.448-1 1-1h-2c-.552 0-1 .448-1 1v4.5c0 .552.448 1 1 1h2c-.552 0-1-.448-1-1z" fill="#d5dbe1"/><path d="m28.754 13.586c-.329-.219-.715-.336-1.109-.336h-2c.395 0 .781.117 1.109.336l2.496 1.664v-1.333z" fill="#d5dbe1"/><path d="m11.25 21c0-.882.512-1.637 1.25-2.006-.302-.151-.639-.244-1-.244-1.243 0-2.25 1.007-2.25 2.25s1.007 2.25 2.25 2.25c.361 0 .698-.093 1-.244-.738-.369-1.25-1.125-1.25-2.006z" fill="#d5dbe1"/><path d="m24.25 21c0-.882.512-1.637 1.25-2.006-.302-.151-.639-.244-1-.244-1.243 0-2.25 1.007-2.25 2.25s1.007 2.25 2.25 2.25c.361 0 .698-.093 1-.244-.738-.369-1.25-1.125-1.25-2.006z" fill="#d5dbe1"/><path d="m10.75 25.75h-2c-1.105 0-2 .895-2 2v1.5h2v-1.5c0-1.105.895-2 2-2z" fill="#00b871"/><path d="m23.75 25.75h-2c-1.105 0-2 .895-2 2v1.5h2v-1.5c0-1.105.895-2 2-2z" fill="#00b871"/><path d="m29.25 16c-.146 0-.29-.042-.416-.126l-2.496-1.664c-.206-.138-.446-.21-.693-.21h-5.895c-.965 0-1.75-.785-1.75-1.75v-4.5c0-.965.785-1.75 1.75-1.75h8.5c.965 0 1.75.785 1.75 1.75v7.5c0 .276-.152.53-.396.661-.111.06-.233.089-.354.089zm-9.5-8.5c-.138 0-.25.112-.25.25v4.5c0 .138.112.25.25.25h5.895c.545 0 1.072.16 1.525.462l1.33.887v-6.099c0-.138-.112-.25-.25-.25z"/><path d="m6.75 18c-.122 0-.243-.029-.354-.089-.244-.131-.396-.385-.396-.661v-7.5c0-.965.785-1.75 1.75-1.75h7.5v1.5h-7.5c-.136 0-.25.114-.25.25v6.102l1.335-.887c.44-.302.971-.465 1.525-.465h7.89v1.5h-7.89c-.247 0-.49.074-.687.208l-2.509 1.667c-.124.083-.269.125-.414.125z"/><path d="m11.5 24c-1.654 0-3-1.346-3-3s1.346-3 3-3 3 1.346 3 3-1.346 3-3 3zm0-4.5c-.827 0-1.5.673-1.5 1.5s.673 1.5 1.5 1.5 1.5-.673 1.5-1.5-.673-1.5-1.5-1.5z"/><path d="m17 29.25h-1.5v-1.5c0-.689-.561-1.25-1.25-1.25h-5.5c-.689 0-1.25.561-1.25 1.25v1.5h-1.5v-1.5c0-1.517 1.233-2.75 2.75-2.75h5.5c1.517 0 2.75 1.233 2.75 2.75z"/><path d="m24.5 24c-1.654 0-3-1.346-3-3s1.346-3 3-3 3 1.346 3 3-1.346 3-3 3zm0-4.5c-.827 0-1.5.673-1.5 1.5s.673 1.5 1.5 1.5 1.5-.673 1.5-1.5-.673-1.5-1.5-1.5z"/><path d="m30 29.25h-1.5v-1.5c0-.689-.561-1.25-1.25-1.25h-5.5c-.689 0-1.25.561-1.25 1.25v1.5h-1.5v-1.5c0-1.517 1.233-2.75 2.75-2.75h5.5c1.517 0 2.75 1.233 2.75 2.75z"/></svg>