<?xml version="1.0"?>
<svg xmlns="http://www.w3.org/2000/svg" xmlns:xlink="http://www.w3.org/1999/xlink" xmlns:svgjs="http://svgjs.com/svgjs" version="1.1" width="512" height="512" x="0" y="0" viewBox="0 0 512 512" style="enable-background:new 0 0 512 512" xml:space="preserve" class=""><g><g xmlns="http://www.w3.org/2000/svg"><g><g><ellipse cx="233.43" cy="181.965" fill="#6fe9cd" rx="124.922" ry="124.922" transform="matrix(.058 -.998 .998 .058 38.207 404.426)" data-original="#ffbdbc" style=""/></g></g><g fill="#020288"><path d="m237.828 95.258c-3.303-2.136-7.553-2.135-10.858-.001-2.216 1.433-54.261 35.589-54.258 80.149.003 39.281 40.452 70.483 51.551 78.302l.2 10.634c.103 5.458 4.559 9.813 9.994 9.813.063 0 .128-.001.192-.002 5.521-.104 9.914-4.664 9.81-10.186l-.243-12.931c14.396-10.836 47.88-39.885 47.877-75.626-.002-44.558-52.049-78.72-54.265-80.152zm34.265 80.153c.001 19.835-15.522 38.199-28.359 49.992l-.444-23.635 14.686-14.686c3.905-3.905 3.905-10.237 0-14.143-3.905-3.903-10.237-3.904-14.142 0l-1.066 1.066-.369-19.674c-.104-5.522-4.673-9.893-10.186-9.811-5.521.104-9.914 4.664-9.81 10.186l.376 20.04-1.809-1.809c-3.905-3.904-10.237-3.904-14.142 0-3.905 3.905-3.905 10.237.001 14.143l16.492 16.491.457 24.32c-14.148-12.506-31.065-32.277-31.066-52.488-.002-26.491 27.69-50.358 39.686-59.453 12.003 9.102 39.694 32.971 39.695 59.461z" fill="#12125a" data-original="#020288" style="" class=""/><path d="m464.903 267.493-32.273-56.692c4.997-56.367-12.4-111.075-47.981-150.539-35.038-38.861-84.802-60.262-140.123-60.262l-.311.004s0 0-.001 0c-61.605 0-113.167 20.686-149.111 59.821-19.648 21.394-34.111 47.425-42.987 77.371-8.089 27.295-11.063 57.015-8.598 85.947 4.067 47.752 34.559 112.138 107.664 151.984l.705 126.928c.031 5.501 4.499 9.944 10 9.944h133.669c5.523 0 10-4.478 10-10v-84.355l83.133 9.022c9.88 1.061 19.505-1.874 27.113-8.254 7.608-6.378 12.174-15.345 12.86-25.321l4.51-73.418c18.475-14.385 28.653-22.527 30.274-24.219 7.275-7.587 7.837-19.445 1.457-27.961zm-15.825 14.041c-2.435 2.174-17.877 14.344-31.746 25.124-2.268 1.763-3.668 4.415-3.845 7.282l-4.782 77.852c-.305 4.43-2.348 8.441-5.751 11.295-3.406 2.854-7.72 4.162-12.121 3.695l-94.197-10.223c-2.819-.307-5.644.602-7.758 2.499s-3.321 4.603-3.321 7.442v85.5h-113.725l-.683-122.966c-.021-3.728-2.114-7.135-5.43-8.839-69.745-35.838-98.561-95.172-102.273-138.749-4.763-55.919 12.578-111.28 46.388-148.093 31.997-34.838 78.354-53.282 134.075-53.35.019.001.037.001.056.002.227.006.452.004.675-.006 49.537.03 93.983 19.082 125.154 53.654 32.476 36.019 48.014 86.431 42.633 138.31-.216 2.075.224 4.166 1.256 5.98l34.195 60.07c.277.487.596.951.951 1.385.536.656.639 1.62.249 2.136z" fill="#12125a" data-original="#020288" style="" class=""/></g></g></g></svg>
