<?xml version="1.0"?>
<svg xmlns="http://www.w3.org/2000/svg" xmlns:xlink="http://www.w3.org/1999/xlink" xmlns:svgjs="http://svgjs.com/svgjs" version="1.1" width="512" height="512" x="0" y="0" viewBox="0 0 512 512" style="enable-background:new 0 0 512 512" xml:space="preserve" class=""><g><g xmlns="http://www.w3.org/2000/svg"><g><circle cx="256" cy="256" fill="#6fe9cd" r="164.745" data-original="#ffbdbc" style="" class=""/></g><g fill="#020288"><path d="m369.718 191.881c-2.747-.589-67.665-14.055-101.14 19.419-5.284 5.284-9.398 11.351-12.578 17.833-3.18-6.482-7.294-12.55-12.578-17.833-33.475-33.474-98.394-20.008-101.14-19.419-3.848.826-6.853 3.832-7.679 7.679-.59 2.747-14.056 67.664 19.419 101.14 18.333 18.333 46.098 22.586 67.915 22.586 18.019 0 31.982-2.901 33.225-3.168.284-.061.563-.134.837-.218.274.084.553.157.837.218 1.243.267 15.205 3.168 33.225 3.168 21.817 0 49.582-4.253 67.916-22.587 33.475-33.476 20.009-98.393 19.419-101.14-.825-3.846-3.831-6.852-7.678-7.678zm-201.553 94.677c-20.508-20.509-17.316-60.484-15.101-76.216 15.742-2.217 55.711-5.405 76.216 15.101 13.123 13.122 16.542 34.215 16.722 51.827-.014 1.16-.015 2.305-.005 3.433-.036 2.84-.15 5.564-.312 8.118l-25.071-25.071-.001-23.881c0-5.523-4.477-10-10-10-5.523.001-10 4.478-10 10.001v3.879l-10.638-10.638c-3.905-3.905-10.237-3.905-14.143 0-3.905 3.905-3.905 10.237 0 14.143l10.639 10.638h-3.879c-5.522 0-10 4.477-10 9.999-.001 5.523 4.477 10 9.999 10.001l23.882.002 25.07 25.07c-18.953 1.198-47.214-.242-63.378-16.406zm175.67 0c-16.167 16.166-44.429 17.605-63.378 16.405l25.071-25.071 23.882-.002c5.523-.001 10-4.478 10-10.001-.001-5.523-4.478-10-10.001-9.999h-3.879l10.638-10.638c3.905-3.905 3.905-10.237 0-14.143-3.905-3.905-10.237-3.905-14.143 0l-10.638 10.638v-3.879c0-5.523-4.477-10-10-10.001-5.523 0-10 4.477-10 10l-.001 23.881-25.119 25.119c-.15-2.547-.245-5.211-.266-7.953.01-.939.011-1.889.005-2.851.207-18.497 3.931-39.837 16.715-52.621 20.538-20.538 60.601-17.305 76.284-15.091 2.82 19.399 3.807 57.23-15.17 76.207z" fill="#12125a" data-original="#020288" style="" class=""/><path d="m484.3 201.169h-8.48c-5.413-21.803-14.007-42.534-25.626-61.82l6.01-6.01c10.8-10.8 10.8-28.374 0-39.174l-38.369-38.369c-10.801-10.8-28.373-10.8-39.174 0l-6.01 6.01c-19.287-11.619-40.018-20.212-61.82-25.626v-8.48c0-15.274-12.426-27.7-27.7-27.7h-54.262c-15.274 0-27.7 12.426-27.7 27.7v8.48c-21.803 5.414-42.534 14.007-61.821 25.626l-6.01-6.01c-10.801-10.8-28.373-10.8-39.174 0l-38.368 38.369c-10.8 10.8-10.8 28.374 0 39.174l6.01 6.01c-11.619 19.287-20.212 40.018-25.626 61.82h-8.48c-15.274 0-27.7 12.426-27.7 27.7v54.262c0 15.274 12.426 27.7 27.7 27.7h8.48c5.414 21.803 14.007 42.534 25.626 61.82l-6.01 6.01c-10.8 10.8-10.8 28.374 0 39.174l38.369 38.369c10.801 10.8 28.373 10.8 39.174 0l6.01-6.01c19.287 11.619 40.018 20.212 61.821 25.626v8.48c0 15.274 12.426 27.7 27.7 27.7h54.262c15.274 0 27.7-12.426 27.7-27.7v-8.48c21.803-5.414 42.534-14.007 61.82-25.626l6.01 6.01c10.801 10.8 28.373 10.8 39.174 0l38.369-38.369c10.8-10.8 10.8-28.374 0-39.174l-6.01-6.01c11.619-19.287 20.213-40.018 25.626-61.82h8.48c15.274 0 27.7-12.426 27.7-27.7v-54.262c-.001-15.274-12.427-27.7-27.701-27.7zm7.7 81.962c0 4.246-3.454 7.7-7.7 7.7h-16.445c-4.729 0-8.811 3.313-9.786 7.939-5.251 24.939-14.993 48.443-28.956 69.858-2.582 3.961-2.038 9.189 1.306 12.532l11.642 11.642c3.003 3.003 3.003 7.887 0 10.89l-38.369 38.369c-3.003 3.003-7.887 3.003-10.89 0l-11.642-11.642c-3.344-3.344-8.572-3.889-12.532-1.306-21.415 13.962-44.919 23.705-69.858 28.956-4.627.975-7.939 5.057-7.939 9.786v16.445c0 4.246-3.454 7.7-7.7 7.7h-54.262c-4.246 0-7.7-3.454-7.7-7.7v-16.445c0-4.729-3.313-8.811-7.939-9.786-24.94-5.251-48.443-14.993-69.859-28.956-1.672-1.09-3.571-1.623-5.458-1.623-2.582 0-5.143.998-7.074 2.929l-11.642 11.642c-3.003 3.003-7.887 3.003-10.89 0l-38.369-38.369c-3.003-3.003-3.003-7.887 0-10.89l11.642-11.642c3.343-3.343 3.888-8.571 1.306-12.532-13.962-21.415-23.705-44.919-28.956-69.858-.975-4.627-5.057-7.939-9.786-7.939h-16.444c-4.246 0-7.7-3.454-7.7-7.7v-54.262c0-4.246 3.454-7.7 7.7-7.7h16.445c4.729 0 8.811-3.313 9.786-7.939 5.251-24.94 14.993-48.443 28.956-69.858 2.582-3.961 2.038-9.189-1.306-12.532l-11.642-11.642c-3.003-3.003-3.003-7.887 0-10.89l38.369-38.369c3.003-3.003 7.887-3.003 10.89 0l11.642 11.642c3.343 3.343 8.57 3.888 12.532 1.306 21.416-13.962 44.919-23.705 69.859-28.956 4.627-.975 7.939-5.057 7.939-9.786v-16.445c0-4.246 3.454-7.7 7.7-7.7h54.262c4.246 0 7.7 3.454 7.7 7.7v16.445c0 4.729 3.313 8.811 7.939 9.786 24.939 5.251 48.443 14.993 69.858 28.956 3.96 2.582 9.19 2.037 12.532-1.306l11.642-11.642c3.003-3.003 7.887-3.003 10.89 0l38.369 38.369c3.003 3.003 3.003 7.887 0 10.89l-11.642 11.642c-3.343 3.343-3.888 8.571-1.306 12.532 13.962 21.415 23.705 44.919 28.956 69.858.975 4.627 5.057 7.939 9.786 7.939h16.444c4.246 0 7.7 3.454 7.7 7.7z" fill="#12125a" data-original="#020288" style="" class=""/></g></g></g></svg>
