<?xml version="1.0" encoding="utf-8"?>
<!-- Generator: Adobe Illustrator 21.0.2, SVG Export Plug-In . SVG Version: 6.00 Build 0)  -->
<svg version="1.1" id="Layer_1" xmlns="http://www.w3.org/2000/svg" xmlns:xlink="http://www.w3.org/1999/xlink" x="0px" y="0px"
	 viewBox="0 0 50 45" style="enable-background:new 0 0 50 45;" xml:space="preserve">
<style type="text/css">
	.st0{fill:#25CE9E;}
</style>
<path class="st0" d="M48.7,44.9L1.3,45h0c-0.3,0-0.7-0.1-0.9-0.4C0.2,44.4,0,44.1,0,43.8L0,17c0,0,0,0,0,0c0-0.4,0.2-0.8,0.6-1
	l7.2-4.8V6.1c0-0.7,0.6-1.2,1.3-1.2h8.2l7.1-4.7c0.4-0.3,1-0.3,1.5,0l7,4.7H41c0.7,0,1.3,0.6,1.3,1.2v5.1l7.2,4.8
	c0.3,0.2,0.4,0.4,0.5,0.7c0,0.1,0,0.2,0,0.2l0,26.7C50,44.4,49.4,44.9,48.7,44.9z M44.9,42.5L25,27.6l-20,14.9L44.9,42.5z M7.7,14.2
	L3.5,17l4.2,2.8V14.2z M2.6,19.4l0,21.9l15.5-11.6L2.6,19.4z M25,2.7l-3.3,2.2h6.5L25,2.7z M39.7,7.4H10.3v14.2l9.9,6.6l4.1-3
	c0.5-0.3,1.1-0.3,1.6,0c0,0,0,0,0,0l4,3l9.9-6.6V7.4z M42.3,14.3v5.5l4.1-2.7L42.3,14.3z M47.4,19.3L31.9,29.7l15.5,11.6L47.4,19.3z
	 M15.1,20c0-0.7,0.6-1.2,1.3-1.2h17.3c0.7,0,1.3,0.6,1.3,1.2s-0.6,1.2-1.3,1.2H16.3C15.6,21.2,15.1,20.6,15.1,20z M33.7,14.8H16.3
	c-0.7,0-1.3-0.6-1.3-1.2c0-0.7,0.6-1.2,1.3-1.2h17.3c0.7,0,1.3,0.6,1.3,1.2C34.9,14.2,34.4,14.8,33.7,14.8z"/>
</svg>
