<?xml version="1.0" encoding="utf-8"?>
<!-- Generator: Adobe Illustrator 21.0.2, SVG Export Plug-In . SVG Version: 6.00 Build 0)  -->
<svg version="1.1" id="Layer_1" xmlns="http://www.w3.org/2000/svg" xmlns:xlink="http://www.w3.org/1999/xlink" x="0px" y="0px"
	 viewBox="0 0 50 43" style="enable-background:new 0 0 50 43;" xml:space="preserve">
<style type="text/css">
	.st0{fill:#25CE9E;}
</style>
<path class="st0" d="M48.7,43c-0.2,0-0.3,0-0.5-0.1l-11.7-4.7l-11,4.7l-0.1,0C25.3,43,25.1,43,25,43c-0.1,0-0.3,0-0.4-0.1l-0.1,0
	l0,0l-10.9-4.7L1.8,42.9C1.7,43,1.5,43,1.3,43c-0.3,0-0.5-0.1-0.7-0.2C0.2,42.5,0,42.1,0,41.7V6.3c0-0.6,0.3-1,0.8-1.2l12.4-5l0.1,0
	c0.1,0,0.1,0,0.2,0l0.2,0c0,0,0.1,0,0.2,0l0.1,0l0,0l0.1,0h0l0.1,0l0,0L25,4.8l11-4.7L36.2,0l0.1,0c0,0,0.1,0,0.1,0
	c0.1,0,0.1,0,0.2,0l0.1,0l0.1,0l0.1,0l12.2,5.8C49.7,6.1,50,6.6,50,7.1v34.6c0,0.4-0.2,0.9-0.6,1.1C49.2,42.9,48.9,43,48.7,43z
	 M2.7,7.2v32.5l9.6-3.9V3.3L2.7,7.2z M37.8,35.8l9.6,3.9V7.9l-9.6-4.5V35.8z M14.9,35.8l8.8,3.8V7.1l-8.8-3.8V35.8z M26.3,7.1v32.5
	l8.8-3.8V3.3L26.3,7.1z"/>
</svg>
