<?xml version="1.0" encoding="utf-8"?>
<!-- Generator: Adobe Illustrator 21.0.2, SVG Export Plug-In . SVG Version: 6.00 Build 0)  -->
<svg version="1.1" id="Layer_1" xmlns="http://www.w3.org/2000/svg" xmlns:xlink="http://www.w3.org/1999/xlink" x="0px" y="0px"
	 viewBox="0 0 51 51" style="enable-background:new 0 0 51 51;" xml:space="preserve">
<style type="text/css">
	.st0{fill:#25CE9E;}
</style>
<path class="st0" d="M48.9,24.7c-0.1,0-0.2,0-0.2,0c-0.7,0-1.3-0.5-1.4-1.2c-0.8-4.9-3.2-9.4-6.7-13c-3.6-3.6-8.1-5.9-13-6.7
	c-0.8-0.1-1.3-0.9-1.2-1.6c0.1-0.8,0.9-1.3,1.6-1.2c5.5,0.9,10.5,3.5,14.5,7.5s6.6,9,7.5,14.5C50.2,23.8,49.6,24.5,48.9,24.7z
	 M27.5,10.1c3.4,0.6,6.4,2.2,8.8,4.6c2.4,2.4,4,5.5,4.6,8.8c0.1,0.8-0.4,1.5-1.2,1.6c-0.1,0-0.2,0-0.2,0c-0.7,0-1.3-0.5-1.4-1.2
	c-0.5-2.8-1.8-5.3-3.8-7.3c-2-2-4.5-3.3-7.3-3.8c-0.8-0.1-1.3-0.9-1.2-1.6C26,10.4,26.8,9.9,27.5,10.1z M18.1,19.5
	c-0.8,0.8-1.6,1.6-2.5,2.4c0.6,1.4,1.5,2.8,2.9,4.5c2.7,3.3,5.6,5.9,8.7,7.9c0.3,0.2,0.7,0.4,1,0.6c0.3,0.1,0.5,0.3,0.8,0.4l3.3-3.3
	c1.1-1.1,2.3-1.6,3.6-1.6c1.3,0,2.5,0.6,3.6,1.6l5.8,5.8c1.1,1.1,1.6,2.3,1.6,3.6c0,1.3-0.5,2.6-1.6,3.7C45,45.5,44.5,46,44,46.4
	c-0.7,0.6-1.3,1.2-1.9,1.9c0,0,0,0,0,0.1C40.5,50.1,38.5,51,36,51c-0.2,0-0.4,0-0.7,0c-3.6-0.2-6.9-1.6-9.3-2.7
	c-6.4-3.1-11.9-7.4-16.6-13c-3.8-4.6-6.4-8.9-8.1-13.5C0.7,19.9-0.2,17,0,14c0.2-1.9,0.9-3.6,2.3-4.9l3.6-3.6c0,0,0,0,0,0
	c1.1-1,2.3-1.6,3.6-1.6c1.3,0,2.5,0.5,3.5,1.6c0.7,0.6,1.4,1.3,2,2c0.3,0.3,0.7,0.7,1,1l2.9,2.9c2.2,2.2,2.2,5.1,0,7.3
	C18.7,18.9,18.4,19.2,18.1,19.5z M16.9,13.3l-2.9-2.9c-0.3-0.3-0.7-0.7-1-1c-0.6-0.7-1.3-1.3-1.9-1.9c0,0,0,0,0,0
	c-0.3-0.3-0.9-0.7-1.5-0.7C9,6.7,8.5,7,8,7.5l-3.6,3.6C3.5,11.9,3,13,2.9,14.2c-0.2,1.9,0.2,4,1.2,6.6c1.6,4.3,4,8.3,7.6,12.7
	c4.4,5.2,9.6,9.3,15.6,12.2c2.2,1,5.1,2.3,8.2,2.5c0.2,0,0.3,0,0.5,0c1.7,0,2.9-0.5,4-1.7c0.7-0.8,1.4-1.5,2-2.1
	c0.5-0.4,0.9-0.8,1.3-1.3c1.1-1.1,1.1-2.2,0-3.3L37.5,34c0,0,0,0,0,0c-0.3-0.4-0.9-0.8-1.5-0.8c-0.7,0-1.2,0.4-1.6,0.8l-3.6,3.6
	c-0.2,0.2-0.7,0.7-1.6,0.7c-0.3,0-0.7-0.1-1-0.3c0,0-0.1-0.1-0.1-0.1c-0.3-0.2-0.7-0.4-1-0.6c-0.4-0.2-0.9-0.4-1.3-0.7
	c-3.4-2.1-6.5-4.9-9.4-8.5l0,0c-1.6-2-2.7-3.7-3.4-5.6c0,0,0-0.1,0-0.1c-0.2-0.6-0.4-1.5,0.5-2.4c0,0,0,0,0.1-0.1
	c0.9-0.8,1.8-1.7,2.7-2.6c0.3-0.3,0.6-0.6,0.9-0.9C18.1,15.4,18.1,14.4,16.9,13.3z"/>
</svg>
